<?xml version="1.0" standalone="no"?>
<svg xmlns="http://www.w3.org/2000/svg" viewBox="0 0 155.352 29" width="155.352" height="29"><g fill="#ffffff" color="#ffffff" transform="translate(0, 0) scale(0.29)"><svg width="100.0" height="100.0" x="0.0" y="0.0" viewBox="0 0 100 100"><g><path d="M85.032,31H43v-0.274v-6.232C43,21.392,40.042,19,36.94,19H17.301C14.199,19,12,21.392,12,24.494v52.371   c0,1.645,0.552,3.123,1.682,4.153c0.54,0.492,1.093,0.634,1.793,0.888C16.072,82.122,16.63,82,17.301,82H36.94   c0.67,0,1.311,0.121,1.907-0.095c0.7-0.254,1.552-0.518,2.092-1.01c1.13-1.03,2.061-2.385,2.061-4.03V74h11.533H55v5h-7.656   C46.324,79,45,79.651,45,80.672v3.818C45,85.51,46.324,86,47.344,86h23.752C72.117,86,73,85.51,73,84.49v-3.818   C73,79.651,72.117,79,71.097,79H64v-5h21.032C88.135,74,91,71.314,91,68.212v-31.86C91,33.25,88.135,31,85.032,31z M41,76.374   c0,0.501-0.101,0.978-0.285,1.411C40.165,79.087,38.876,80,37.374,80h0H17.626h0c-1.502,0-2.791-0.913-3.341-2.215   C14.101,77.352,14,76.875,14,76.374V24.626c0-0.501,0.101-0.978,0.285-1.411C14.835,21.913,16.124,21,17.626,21h0h19.747h0   c1.502,0,2.791,0.913,3.341,2.215C40.899,23.648,41,24.125,41,24.626V76.374z M43,60.804V38h40.506C83.732,38,84,37.778,84,38.004   v22.382C84,60.613,83.732,61,83.506,61H43V60.804z M71,81v3H47v-3h7.683C55.703,81,57,79.991,57,78.971V74h4.909H62v4.971   C62,79.991,62.739,81,63.759,81H71z M89,68.212c0,2-1.968,3.788-3.968,3.788H43v-0.162V63h40.506C84.839,63,86,61.719,86,60.387   V38.004C86,36.672,84.839,36,83.506,36H43v-0.413V33h42.032c2,0,3.968,1.353,3.968,3.352V68.212z"></path><circle cx="59.221" cy="67.544" r="1.662"></circle><path d="M39,81.151V84H15v-2.849c0-0.253-1.335-0.641-1.875-1.133C13.048,80.222,13,80.441,13,80.672v3.818   C13,85.51,14.224,86,15.244,86h23.752C40.017,86,41,85.51,41,84.49v-3.818c0-0.231-0.048-0.45-0.125-0.654   C40.335,80.51,40,80.897,39,81.151z"></path><circle cx="27.12" cy="73.061" r="1.662"></circle><path d="M36.522,29.038C36.402,29.013,36.277,29,36.149,29H18.851c-0.128,0-0.252,0.013-0.373,0.038   C17.634,29.21,17,29.956,17,30.85v0v4.299v0c0,0.894,0.634,1.64,1.478,1.813C18.598,36.987,18.723,37,18.851,37h17.299   c0.128,0,0.253-0.013,0.373-0.038C37.366,36.79,38,36.044,38,35.15v0v-4.299v0C38,29.956,37.366,29.21,36.522,29.038z M36,35H19v-4   h17V35z"></path><polygon points="19,53.776 19,55 35,55 35,53.776 35,53 19,53  "></polygon><polygon points="19,57.51 19,59 35,59 35,57.51 35,57 19,57  "></polygon><polygon points="19,61.244 19,62 35,62 35,61.244 35,60 19,60  "></polygon><polygon points="19,64.977 19,66 35,66 35,64.977 35,64 19,64  "></polygon></g></svg></g><line x1="41" y1="1" x2="41" y2="28" stroke="#ffffff" stroke-linecap="round"></line><path fill="#ffffff" fill-rule="nonzero" d="M12.96 17.16L0 17.16L0 16.06L2.21 15.53L2.21 1.99L0 1.46L0 0.36L12.50 0.36L12.50 5.28L11.38 5.28L10.34 1.97L5.16 1.78L5.16 7.94L10.34 7.49L10.34 9.62L5.16 9.19L5.16 15.74L10.80 15.55L12.02 11.98L13.15 11.98L12.96 17.16ZM15.82 11.52L15.82 9.67L21.07 9.67L21.07 11.52L15.82 11.52ZM24.02 4.20L24.02 4.20Q24.02 2.21 25.61 1.10Q27.19 0 29.71 0L29.71 0Q32.40 0 34.63 0.55L34.63 0.55L34.51 5.16L33.43 5.16L32.23 1.70Q31.22 1.51 30.19 1.51L30.19 1.51Q28.54 1.51 27.59 2.16Q26.64 2.81 26.64 3.96L26.64 3.96Q26.64 4.94 27.49 5.60Q28.34 6.26 30.46 7.15L30.46 7.15Q31.58 7.61 32.32 8.00Q33.05 8.40 33.89 9.05Q34.73 9.70 35.15 10.61Q35.57 11.52 35.57 12.65L35.57 12.65Q35.57 15.05 33.79 16.34L33.79 16.34Q32.14 17.54 29.64 17.52L29.64 17.52Q28.97 17.52 27.42 17.40Q25.87 17.28 24.07 16.75L24.07 16.75L24.07 12.02L25.18 12.02L26.40 15.62Q27.41 15.94 28.75 15.94L28.75 15.94Q30.62 15.94 31.78 15.28Q32.93 14.62 32.93 13.20L32.93 13.20Q32.93 12.12 31.90 11.33Q30.86 10.54 28.87 9.67L28.87 9.67Q26.14 8.50 25.08 7.39Q24.02 6.29 24.02 4.20ZM38.54 5.45L37.42 5.45L37.42 0.36L51.70 0.36L51.70 5.45L50.57 5.45L49.49 1.97L46.03 1.78L46.03 15.53L48.24 16.06L48.24 17.16L40.87 17.16L40.87 16.06L43.08 15.53L43.08 1.78L39.60 1.97L38.54 5.45ZM61.68 0L61.68 0Q63.62 0 65.11 0.65Q66.60 1.30 67.63 2.45Q68.66 3.60 69.19 5.21Q69.72 6.82 69.72 8.74L69.72 8.74Q69.72 10.68 69.20 12.29Q68.69 13.90 67.67 15.06Q66.65 16.22 65.15 16.87Q63.65 17.52 61.68 17.52L61.68 17.52Q59.59 17.52 58.07 16.82Q56.54 16.13 55.56 14.94Q54.58 13.75 54.11 12.14Q53.64 10.54 53.64 8.69L53.64 8.69Q53.64 6.89 54.12 5.32Q54.60 3.74 55.58 2.56Q56.57 1.37 58.09 0.68Q59.62 0 61.68 0ZM61.68 1.42L61.68 1.42Q59.23 1.42 57.97 3.47Q56.71 5.52 56.71 8.76L56.71 8.76Q56.71 12.19 58.04 14.15Q59.38 16.10 61.68 16.10L61.68 16.10Q63.98 16.10 65.32 14.15Q66.65 12.19 66.65 8.76L66.65 8.76Q66.65 5.52 65.39 3.47Q64.13 1.42 61.68 1.42ZM80.83 0L80.83 0Q83.62 0 85.51 0.84L85.51 0.84L85.51 5.38L84.41 5.38L83.30 1.82Q82.37 1.61 81.14 1.61L81.14 1.61Q75.17 1.61 75.17 8.76L75.17 8.76Q75.17 15.91 80.66 15.91L80.66 15.91Q81.48 15.91 82.13 15.86Q82.78 15.82 83.30 15.72L83.30 15.72L84.70 11.93L85.80 11.93L85.63 16.46Q85.30 16.66 84.67 16.85Q84.05 17.04 83.32 17.18Q82.58 17.33 81.80 17.42Q81.02 17.52 80.38 17.52L80.38 17.52Q76.32 17.52 74.23 15.26Q72.14 13.01 72.14 8.76L72.14 8.76Q72.14 4.51 74.32 2.26Q76.49 0 80.83 0ZM95.45 17.16L88.08 17.16L88.08 16.06L90.29 15.65L90.29 1.87L88.08 1.46L88.08 0.36L95.45 0.36L95.45 1.46L93.24 1.87L93.24 15.65L95.45 16.06L95.45 17.16ZM99.72 17.16L93.77 8.54L99.70 1.87L97.97 1.46L97.97 0.36L103.73 0.36L103.73 1.46L101.59 1.99L96.43 7.73L102.07 15.29L104.35 16.06L104.35 17.16L99.72 17.16Z" transform="translate(51, 5.92)"></path></svg>